<svg width="132" height="15" viewBox="0 0 132 15" fill="none" xmlns="http://www.w3.org/2000/svg">
<path d="M2.8 2.28V5.78H7.5V8H2.8V11.7H8.1V13.98H0V0H8.1V2.28H2.8Z" fill="#EB6D20"/>
<path d="M19.1645 5.66V8.02H10.6845V5.66H19.1645Z" fill="#EB6D20"/>
<path d="M21.5847 8.44C21.5847 7.29333 21.818 6.29333 22.2847 5.44C22.7514 4.57333 23.398 3.90667 24.2247 3.44C25.0514 2.96 25.998 2.72 27.0647 2.72C28.438 2.72 29.5714 3.06667 30.4647 3.76C31.3714 4.44 31.978 5.4 32.2847 6.64H29.2647C29.1047 6.16 28.8314 5.78667 28.4447 5.52C28.0714 5.24 27.6047 5.1 27.0447 5.1C26.2447 5.1 25.6114 5.39333 25.1447 5.98C24.678 6.55333 24.4447 7.37333 24.4447 8.44C24.4447 9.49333 24.678 10.3133 25.1447 10.9C25.6114 11.4733 26.2447 11.76 27.0447 11.76C28.178 11.76 28.918 11.2533 29.2647 10.24H32.2847C31.978 11.44 31.3714 12.3933 30.4647 13.1C29.558 13.8067 28.4247 14.16 27.0647 14.16C25.998 14.16 25.0514 13.9267 24.2247 13.46C23.398 12.98 22.7514 12.3133 22.2847 11.46C21.818 10.5933 21.5847 9.58667 21.5847 8.44Z" fill="#EB6D20"/>
<path d="M39.2559 14.16C38.1893 14.16 37.2293 13.9267 36.3759 13.46C35.5226 12.98 34.8493 12.3067 34.3559 11.44C33.8759 10.5733 33.6359 9.57333 33.6359 8.44C33.6359 7.30667 33.8826 6.30667 34.3759 5.44C34.8826 4.57333 35.5693 3.90667 36.4359 3.44C37.3026 2.96 38.2693 2.72 39.3359 2.72C40.4026 2.72 41.3693 2.96 42.2359 3.44C43.1026 3.90667 43.7826 4.57333 44.2759 5.44C44.7826 6.30667 45.0359 7.30667 45.0359 8.44C45.0359 9.57333 44.7759 10.5733 44.2559 11.44C43.7493 12.3067 43.0559 12.98 42.1759 13.46C41.3093 13.9267 40.3359 14.16 39.2559 14.16ZM39.2559 11.72C39.7626 11.72 40.2359 11.6 40.6759 11.36C41.1293 11.1067 41.4893 10.7333 41.7559 10.24C42.0226 9.74667 42.1559 9.14667 42.1559 8.44C42.1559 7.38667 41.8759 6.58 41.3159 6.02C40.7693 5.44667 40.0959 5.16 39.2959 5.16C38.4959 5.16 37.8226 5.44667 37.2759 6.02C36.7426 6.58 36.4759 7.38667 36.4759 8.44C36.4759 9.49333 36.7359 10.3067 37.2559 10.88C37.7893 11.44 38.4559 11.72 39.2559 11.72Z" fill="#EB6D20"/>
<path d="M60.8498 2.74C62.2098 2.74 63.3032 3.16 64.1298 4C64.9698 4.82667 65.3898 5.98667 65.3898 7.48V13.98H62.5898V7.86C62.5898 6.99333 62.3698 6.33333 61.9298 5.88C61.4898 5.41333 60.8898 5.18 60.1298 5.18C59.3698 5.18 58.7632 5.41333 58.3098 5.88C57.8698 6.33333 57.6498 6.99333 57.6498 7.86V13.98H54.8498V7.86C54.8498 6.99333 54.6298 6.33333 54.1898 5.88C53.7498 5.41333 53.1498 5.18 52.3898 5.18C51.6165 5.18 51.0032 5.41333 50.5498 5.88C50.1098 6.33333 49.8898 6.99333 49.8898 7.86V13.98H47.0898V2.9H49.8898V4.24C50.2498 3.77333 50.7098 3.40667 51.2698 3.14C51.8432 2.87333 52.4698 2.74 53.1498 2.74C54.0165 2.74 54.7898 2.92667 55.4698 3.3C56.1498 3.66 56.6765 4.18 57.0498 4.86C57.4098 4.22 57.9298 3.70667 58.6098 3.32C59.3032 2.93333 60.0498 2.74 60.8498 2.74Z" fill="#EB6D20"/>
<path d="M81.8069 2.74C83.1669 2.74 84.2602 3.16 85.0869 4C85.9269 4.82667 86.3469 5.98667 86.3469 7.48V13.98H83.5469V7.86C83.5469 6.99333 83.3269 6.33333 82.8869 5.88C82.4469 5.41333 81.8469 5.18 81.0869 5.18C80.3269 5.18 79.7202 5.41333 79.2669 5.88C78.8269 6.33333 78.6069 6.99333 78.6069 7.86V13.98H75.8069V7.86C75.8069 6.99333 75.5869 6.33333 75.1469 5.88C74.7069 5.41333 74.1069 5.18 73.3469 5.18C72.5735 5.18 71.9602 5.41333 71.5069 5.88C71.0669 6.33333 70.8469 6.99333 70.8469 7.86V13.98H68.0469V2.9H70.8469V4.24C71.2069 3.77333 71.6669 3.40667 72.2269 3.14C72.8002 2.87333 73.4269 2.74 74.1069 2.74C74.9735 2.74 75.7469 2.92667 76.4269 3.3C77.1069 3.66 77.6335 4.18 78.0069 4.86C78.3669 4.22 78.8869 3.70667 79.5669 3.32C80.2602 2.93333 81.0069 2.74 81.8069 2.74Z" fill="#EB6D20"/>
<path d="M99.3039 8.2C99.3039 8.6 99.2772 8.96 99.2239 9.28H91.1239C91.1906 10.08 91.4706 10.7067 91.9639 11.16C92.4572 11.6133 93.0639 11.84 93.7839 11.84C94.8239 11.84 95.5639 11.3933 96.0039 10.5H99.0239C98.7039 11.5667 98.0906 12.4467 97.1839 13.14C96.2772 13.82 95.1639 14.16 93.8439 14.16C92.7772 14.16 91.8172 13.9267 90.9639 13.46C90.1239 12.98 89.4639 12.3067 88.9839 11.44C88.5172 10.5733 88.2839 9.57333 88.2839 8.44C88.2839 7.29333 88.5172 6.28667 88.9839 5.42C89.4506 4.55333 90.1039 3.88667 90.9439 3.42C91.7839 2.95333 92.7506 2.72 93.8439 2.72C94.8972 2.72 95.8372 2.94667 96.6639 3.4C97.5039 3.85333 98.1506 4.5 98.6039 5.34C99.0706 6.16667 99.3039 7.12 99.3039 8.2ZM96.4039 7.4C96.3906 6.68 96.1306 6.10667 95.6239 5.68C95.1172 5.24 94.4972 5.02 93.7639 5.02C93.0706 5.02 92.4839 5.23333 92.0039 5.66C91.5372 6.07333 91.2506 6.65333 91.1439 7.4H96.4039Z" fill="#EB6D20"/>
<path d="M104.148 4.62C104.508 4.03333 104.974 3.57333 105.548 3.24C106.134 2.90667 106.801 2.74 107.548 2.74V5.68H106.808C105.928 5.68 105.261 5.88667 104.808 6.3C104.368 6.71333 104.148 7.43333 104.148 8.46V13.98H101.348V2.9H104.148V4.62Z" fill="#EB6D20"/>
<path d="M108.714 8.44C108.714 7.29333 108.947 6.29333 109.414 5.44C109.88 4.57333 110.527 3.90667 111.354 3.44C112.18 2.96 113.127 2.72 114.194 2.72C115.567 2.72 116.7 3.06667 117.594 3.76C118.5 4.44 119.107 5.4 119.414 6.64H116.394C116.234 6.16 115.96 5.78667 115.574 5.52C115.2 5.24 114.734 5.1 114.174 5.1C113.374 5.1 112.74 5.39333 112.274 5.98C111.807 6.55333 111.574 7.37333 111.574 8.44C111.574 9.49333 111.807 10.3133 112.274 10.9C112.74 11.4733 113.374 11.76 114.174 11.76C115.307 11.76 116.047 11.2533 116.394 10.24H119.414C119.107 11.44 118.5 12.3933 117.594 13.1C116.687 13.8067 115.554 14.16 114.194 14.16C113.127 14.16 112.18 13.9267 111.354 13.46C110.527 12.98 109.88 12.3133 109.414 11.46C108.947 10.5933 108.714 9.58667 108.714 8.44Z" fill="#EB6D20"/>
<path d="M131.765 8.2C131.765 8.6 131.738 8.96 131.685 9.28H123.585C123.652 10.08 123.932 10.7067 124.425 11.16C124.918 11.6133 125.525 11.84 126.245 11.84C127.285 11.84 128.025 11.3933 128.465 10.5H131.485C131.165 11.5667 130.551 12.4467 129.645 13.14C128.738 13.82 127.625 14.16 126.305 14.16C125.238 14.16 124.278 13.9267 123.425 13.46C122.585 12.98 121.925 12.3067 121.445 11.44C120.978 10.5733 120.745 9.57333 120.745 8.44C120.745 7.29333 120.978 6.28667 121.445 5.42C121.912 4.55333 122.565 3.88667 123.405 3.42C124.245 2.95333 125.212 2.72 126.305 2.72C127.358 2.72 128.298 2.94667 129.125 3.4C129.965 3.85333 130.612 4.5 131.065 5.34C131.532 6.16667 131.765 7.12 131.765 8.2ZM128.865 7.4C128.852 6.68 128.592 6.10667 128.085 5.68C127.578 5.24 126.958 5.02 126.225 5.02C125.532 5.02 124.945 5.23333 124.465 5.66C123.998 6.07333 123.712 6.65333 123.605 7.4H128.865Z" fill="#EB6D20"/>
</svg>
